<?xml version="1.0" encoding="utf-8"?>
<!-- Svg Vector Icons : http://www.onlinewebfonts.com/icon -->
<!DOCTYPE svg PUBLIC "-//W3C//DTD SVG 1.1//EN" "http://www.w3.org/Graphics/SVG/1.1/DTD/svg11.dtd">
<svg version="1.1" xmlns="http://www.w3.org/2000/svg" xmlns:xlink="http://www.w3.org/1999/xlink" x="0px" y="0px" viewBox="0 0 256 256" enable-background="new 0 0 256 256" xml:space="preserve">
<metadata> Svg Vector Icons : http://www.onlinewebfonts.com/icon </metadata>
<g><g><g><path fill="#000000" d="M41.5,29.2c-13.2,2.9-25.7,14.5-29.9,27.9L10,62.3V128v65.7l1.6,5.1c4.4,14,17.8,25.9,31.7,28.3c3.5,0.5,24.3,0.7,69.6,0.6l64.6-0.2l5.1-2c12.8-5,22.5-15.6,25.8-28.3c0.9-3.4,1.1-9.6,1.1-30.8c0-24.8-0.1-26.6-1.3-27.7c-2.6-2.4-4.6-1.5-10.6,4.4l-5.7,5.7l-0.2,21.7c-0.2,20.3-0.3,21.9-1.8,25c-2.2,4.7-6.5,9.2-10.9,11.5l-3.7,2l-64.2,0.2c-72.5,0.2-68.3,0.5-75-5.5c-2.1-1.8-4.6-5.1-5.7-7.1l-2-3.7v-65V63l2-3.7c1.1-2.1,3.7-5.3,5.7-7.1c6.7-6,2.3-5.7,76.8-5.7l66,0.1l4.7-4.7c5.4-5.4,5.8-7.2,1.8-9.8c-5.7-3.9-7.4-4-75.9-3.9C59.7,28.2,45,28.4,41.5,29.2z"/><path fill="#000000" d="M213.1,38.9c-1,0.7-22.7,22-48.1,47.4l-46.3,46.2l-19.1-19.2c-10.5-10.5-20-19.6-21.1-20.2c-2.6-1.3-7.4-1.3-10,0c-1.1,0.6-6.3,5.4-11.7,10.9c-8,8.1-9.7,10.3-10.1,12.6c-1.2,6-1.2,6,34.1,41.2l33,33l4,0.4c2.7,0.2,4.6-0.1,6.1-0.8c1.2-0.7,28.8-27.8,61.4-60.5c64.7-64.8,61.8-61.5,60-68.2c-0.7-2.3-2.9-5.1-10.1-12.3c-5.1-5.2-10.1-9.9-11.2-10.5C221.2,37.3,215.3,37.4,213.1,38.9z"/></g></g></g>
</svg>